<?xml version="1.0" standalone="no"?>
<!DOCTYPE svg PUBLIC "-//W3C//DTD SVG 20010904//EN"
 "http://www.w3.org/TR/2001/REC-SVG-20010904/DTD/svg10.dtd">
<svg version="1.0" xmlns="http://www.w3.org/2000/svg"
 width="900.000000pt" height="620.000000pt" viewBox="0 0 900.000000 620.000000"
 preserveAspectRatio="xMidYMid meet">

<g transform="translate(0.000000,620.000000) scale(0.100000,-0.100000)"
fill="#000000" stroke="none">
<path d="M4623 4933 c-54 -130 -85 -344 -86 -588 0 -190 12 -322 49 -502 13
-67 24 -127 24 -132 0 -6 -19 -15 -42 -21 -24 -6 -99 -29 -168 -52 -555 -180
-1164 -538 -1541 -906 -44 -42 -82 -71 -88 -68 -16 10 -80 107 -134 203 -127
223 -182 448 -157 632 40 292 238 508 510 557 61 11 117 14 200 10 168 -9 166
-8 174 -68 5 -38 14 -58 37 -79 61 -56 248 -96 402 -85 152 11 277 43 277 70
0 18 -129 139 -198 185 -112 75 -268 131 -366 131 -45 0 -53 -4 -90 -42 l-41
-43 -90 13 c-127 18 -311 10 -400 -18 -194 -61 -336 -182 -428 -365 -101 -203
-113 -409 -36 -660 31 -103 127 -295 207 -415 l70 -104 -48 -56 c-26 -30 -76
-86 -110 -125 -300 -338 -687 -918 -693 -1040 l-2 -40 255 -2 c140 -1 272 1
293 4 37 5 38 5 30 41 -12 59 -7 192 11 262 24 93 84 214 149 296 91 116 254
226 395 268 l54 15 134 -120 c146 -130 331 -279 490 -395 l102 -74 221 0 221
0 0 32 c0 55 -37 115 -88 146 -40 23 -58 27 -122 27 -41 0 -91 -2 -110 -5 -34
-5 -37 -2 -77 58 -47 70 -88 186 -99 282 l-7 63 69 -7 c716 -70 1477 -327
2534 -856 l281 -140 271 2 271 3 10 29 c15 46 -14 122 -73 189 -85 95 -266
167 -419 167 -38 0 -53 5 -64 20 -16 24 -258 285 -539 584 -115 121 -208 223
-208 226 0 4 28 27 63 52 154 114 340 310 454 479 l67 99 153 0 153 0 0 30 0
30 -130 0 c-77 0 -130 4 -130 10 0 24 36 81 55 86 11 2 61 3 110 2 l90 -3 3
33 3 32 -90 0 c-50 0 -91 4 -91 8 0 4 16 47 35 94 151 374 196 783 140 1258
-17 145 -51 306 -66 315 -14 9 -165 -73 -249 -135 -97 -73 -212 -196 -246
-265 -22 -46 -30 -54 -48 -50 -172 39 -719 32 -929 -11 -20 -4 -28 -1 -33 13
-35 105 -132 223 -260 315 -84 60 -220 138 -242 138 -7 0 -20 -17 -29 -37z
m117 -295 c26 -69 90 -167 131 -203 17 -14 50 -37 74 -51 l44 -25 113 25 c122
27 323 56 391 56 l43 0 74 -162 c40 -90 75 -165 77 -167 7 -10 16 14 61 170
l47 164 70 -3 c107 -5 300 -30 393 -52 l84 -20 38 30 c79 62 156 188 199 325
33 104 33 104 42 55 27 -142 37 -603 18 -796 -18 -185 -12 -174 -107 -214 -45
-19 -82 -38 -82 -42 0 -3 24 -9 53 -13 28 -3 60 -9 70 -12 20 -5 20 -9 -9
-109 l-14 -50 -70 -18 c-39 -10 -70 -22 -70 -26 0 -5 23 -16 50 -25 29 -9 50
-23 50 -31 0 -7 -14 -45 -31 -84 l-32 -70 -129 0 -129 0 3 -32 3 -33 107 -5
108 -5 -26 -42 -25 -43 -85 0 -84 0 0 -30 0 -30 60 0 c36 0 60 -4 60 -11 0
-40 -249 -316 -379 -421 -92 -74 -234 -168 -254 -168 -23 0 -221 123 -300 186
-99 80 -227 211 -303 313 -35 46 -64 88 -64 93 0 4 20 8 45 8 43 0 45 1 45 30
l0 30 -69 0 -69 0 -25 43 -25 42 91 5 92 5 3 33 3 32 -110 0 c-130 0 -118 -9
-180 144 -27 66 -36 98 -28 101 7 2 32 10 57 17 l45 15 -72 29 -71 29 -20 67
c-22 77 -22 78 61 79 29 0 70 3 92 7 l40 7 -65 37 c-36 19 -88 47 -117 62 -28
14 -55 31 -59 37 -15 25 -34 194 -40 359 -8 206 5 375 42 530 5 20 10 11 24
-45 10 -38 28 -96 40 -127z m-79 -1095 c12 -38 39 -107 59 -155 21 -49 35 -88
31 -89 -3 0 -46 -1 -96 -2 l-90 -2 -3 -37 -3 -38 120 0 121 0 20 -40 20 -39
-137 -3 -138 -3 0 -35 0 -35 165 -3 165 -3 28 -44 c86 -135 291 -353 446 -475
103 -81 281 -200 298 -200 8 0 31 11 53 25 22 14 44 25 49 25 10 0 71 -70 71
-81 0 -4 -27 -48 -61 -99 -33 -51 -58 -95 -55 -98 3 -3 53 16 112 43 l105 48
65 -64 c35 -35 64 -66 64 -70 0 -3 -47 -41 -105 -85 -103 -77 -127 -102 -82
-88 12 4 80 22 152 41 l129 33 22 -22 c11 -13 105 -114 208 -226 l188 -202 88
0 c141 0 273 -59 341 -153 l30 -42 -219 -3 -219 -2 -309 154 c-563 282 -927
437 -1359 581 -363 121 -824 226 -1095 250 -130 11 -130 11 -130 57 0 55 26
226 49 323 11 44 17 83 13 87 -4 4 -25 10 -48 14 l-41 6 -17 -67 c-21 -84 -56
-307 -56 -359 l0 -39 -152 6 c-87 4 -200 2 -267 -4 l-116 -11 -85 89 c-47 49
-100 107 -117 130 l-33 41 101 97 c126 121 297 258 314 251 7 -2 56 -35 109
-71 112 -78 111 -79 66 74 -17 56 -28 106 -25 111 3 4 46 34 96 66 l92 57 154
-77 c86 -42 157 -75 160 -72 3 2 -12 33 -33 68 -68 115 -105 181 -102 183 12
10 110 55 120 55 7 0 107 -63 222 -140 185 -124 226 -148 226 -137 0 1 -31 95
-70 207 -38 112 -70 207 -70 211 0 11 380 141 432 148 3 1 16 -29 29 -66z
m-1851 -1084 c18 -23 59 -70 92 -105 l60 -64 -38 -16 c-150 -61 -223 -106
-318 -195 -162 -151 -261 -356 -273 -561 l-6 -98 -179 0 -178 0 21 42 c85 167
317 499 518 743 108 130 254 295 262 295 3 0 20 -18 39 -41z"/>
<path d="M5232 4175 c-54 -24 -107 -71 -142 -125 -34 -53 -34 -74 -1 -83 16
-4 26 4 45 37 48 81 117 126 194 126 42 0 73 -24 91 -73 14 -36 12 -186 -2
-257 l-12 -55 -130 -3 c-71 -1 -134 -7 -138 -11 -5 -5 -6 -18 -2 -30 6 -20 13
-21 131 -21 68 0 124 -2 124 -4 0 -14 -64 -174 -90 -227 -18 -34 -28 -65 -23
-68 5 -3 80 -50 166 -104 87 -54 155 -103 152 -107 -3 -5 -43 -33 -90 -62 -47
-29 -85 -58 -85 -64 0 -6 8 -18 18 -27 17 -15 25 -12 121 52 l103 69 115 -75
c107 -69 116 -73 129 -56 7 10 14 23 14 28 0 6 -45 37 -100 70 -55 33 -100 63
-100 66 0 4 72 53 160 110 88 56 160 106 160 110 0 4 -13 32 -29 62 -34 65
-46 122 -36 183 l6 43 142 3 142 3 0 25 0 25 -127 3 c-71 1 -128 6 -128 10 0
4 14 30 30 59 50 87 125 130 245 141 70 7 70 7 70 37 0 30 0 30 -50 27 -163
-11 -283 -87 -341 -218 l-24 -54 -236 0 -236 0 7 23 c3 12 9 76 12 142 6 142
-4 191 -51 243 -32 34 -38 36 -102 39 -46 2 -80 -2 -102 -12z m683 -573 c1
-57 6 -89 22 -124 l22 -48 -299 0 -299 0 23 53 c13 28 34 85 47 125 l23 72
230 0 231 0 0 -78z m-31 -241 c-5 -4 -57 -40 -115 -79 l-105 -70 -117 71 c-64
40 -116 75 -117 80 0 4 104 7 232 7 132 0 228 -4 222 -9z"/>
</g>
</svg>
